<?xml version="1.0" encoding="UTF-8"?><svg xmlns="http://www.w3.org/2000/svg" xmlns:xlink="http://www.w3.org/1999/xlink" fill-opacity="1" color-rendering="auto" color-interpolation="auto" text-rendering="auto" stroke="black" stroke-linecap="square" width="394" stroke-miterlimit="10" shape-rendering="auto" stroke-opacity="1" fill="black" stroke-dasharray="none" font-weight="normal" stroke-width="1" height="423" font-family="'Dialog'" font-style="normal" stroke-linejoin="miter" font-size="12px" stroke-dashoffset="0" image-rendering="auto">
  <!--Generated by ySVG 2.5-->
  <defs id="genericDefs"/>
  <g>
    <defs id="defs1">
      <clipPath clipPathUnits="userSpaceOnUse" id="clipPath1">
        <path d="M0 0 L394 0 L394 423 L0 423 L0 0 Z"/>
      </clipPath>
      <clipPath clipPathUnits="userSpaceOnUse" id="clipPath2">
        <path d="M1252 474 L1646 474 L1646 897 L1252 897 L1252 474 Z"/>
      </clipPath>
    </defs>
    <g fill="white" text-rendering="geometricPrecision" shape-rendering="geometricPrecision" transform="translate(-1252,-474)" stroke="white">
      <rect x="1252" width="394" height="423" y="474" clip-path="url(#clipPath2)" stroke="none"/>
    </g>
    <g text-rendering="geometricPrecision" stroke-miterlimit="1.45" shape-rendering="geometricPrecision" transform="matrix(1,0,0,1,-1252,-474)" stroke-linecap="butt">
      <rect fill="none" x="1514" width="117" height="42" y="489" clip-path="url(#clipPath2)"/>
      <text x="1552.8242" xml:space="preserve" y="514.1543" clip-path="url(#clipPath2)" font-family="sans-serif" stroke="none">Server</text>
      <rect fill="none" x="1267" width="117" height="42" y="489" clip-path="url(#clipPath2)"/>
      <text x="1308.1299" xml:space="preserve" y="514.1543" clip-path="url(#clipPath2)" font-family="sans-serif" stroke="none">Client</text>
      <circle fill="none" r="5" clip-path="url(#clipPath2)" cx="1325.5" cy="876.056"/>
      <circle fill="none" r="5" clip-path="url(#clipPath2)" cx="1572.5" cy="876.056"/>
      <path fill="none" d="M1325.5 531 L1325.5 871.056" clip-path="url(#clipPath2)"/>
      <path fill="none" d="M1572.5 531 L1572.5 871.056" clip-path="url(#clipPath2)"/>
      <path fill="none" d="M1326.9774 586 L1562.9714 586" clip-path="url(#clipPath2)"/>
      <path d="M1570.9714 586 L1558.9714 581 L1561.9714 586 L1558.9714 591 Z" clip-path="url(#clipPath2)" stroke="none"/>
      <text x="1426.0605" xml:space="preserve" y="571.1699" clip-path="url(#clipPath2)" font-family="sans-serif" stroke="none">request</text>
      <path fill="none" d="M1571.0226 640.184 L1335.0286 640.184" clip-path="url(#clipPath2)"/>
      <path d="M1327.0286 640.184 L1339.0286 645.184 L1336.0286 640.184 L1339.0286 635.184 Z" clip-path="url(#clipPath2)" stroke="none"/>
      <text x="1397.4756" xml:space="preserve" y="625.3539" clip-path="url(#clipPath2)" font-family="sans-serif" stroke="none">response_update</text>
      <path fill="none" d="M1571.0226 757.276 L1335.0286 757.276" clip-path="url(#clipPath2)"/>
      <path d="M1327.0286 757.276 L1339.0286 762.276 L1336.0286 757.276 L1339.0286 752.276 Z" clip-path="url(#clipPath2)" stroke="none"/>
      <text x="1397.4756" xml:space="preserve" y="742.4459" clip-path="url(#clipPath2)" font-family="sans-serif" stroke="none">response_update</text>
      <path fill="none" d="M1326.9774 694.368 L1562.9714 694.368" clip-path="url(#clipPath2)"/>
      <path d="M1570.9714 694.368 L1558.9714 689.368 L1561.9714 694.368 L1558.9714 699.368 Z" clip-path="url(#clipPath2)" stroke="none"/>
      <text x="1401.9199" xml:space="preserve" y="679.5379" clip-path="url(#clipPath2)" font-family="sans-serif" stroke="none">request_update</text>
      <path fill="none" d="M1571.0226 820.184 L1335.0286 820.184" clip-path="url(#clipPath2)"/>
      <path d="M1327.0286 820.184 L1339.0286 825.184 L1336.0286 820.184 L1339.0286 815.184 Z" clip-path="url(#clipPath2)" stroke="none"/>
      <text x="1421.6162" xml:space="preserve" y="805.3539" clip-path="url(#clipPath2)" font-family="sans-serif" stroke="none">response</text>
    </g>
  </g>
</svg>
